<!DOCTYPE svg PUBLIC "-//W3C//DTD SVG 1.1//EN" "http://www.w3.org/Graphics/SVG/1.1/DTD/svg11.dtd">
<!-- Uploaded to: SVG Repo, www.svgrepo.com, Transformed by: SVG Repo Mixer Tools -->
<svg width="800px" height="800px" viewBox="0 0 80 80" data-name="Layer 1" id="Layer_1" xmlns="http://www.w3.org/2000/svg" fill="#ffffff" stroke="#ffffff">
<g id="SVGRepo_bgCarrier" stroke-width="0"/>
<g id="SVGRepo_tracerCarrier" stroke-linecap="round" stroke-linejoin="round"/>
<g id="SVGRepo_iconCarrier">
<defs>
<style>.cls-1{fill:#840bdcffffffffff;}.cls-2{fill:#840bdcfffff;}.cls-3,.cls-4{fill:none;stroke:#840bdc;stroke-linecap:round;stroke-width:4px;}.cls-3{stroke-linejoin:round;}.cls-4{stroke-miterlimit:10;}</style>
</defs>
<title/>
<path class="cls-1" d="M29,65.9992H9.9784a3,3,0,0,1-2.5981-4.5L23.882,32.9174,37.4019,9.5a3,3,0,0,1,5.1962,0l16.52,28.6134L72.62,61.4992a3,3,0,0,1-2.5981,4.5Z"/>
<path class="cls-2" d="M72.62,61.4992,59.118,38.1136,42.5981,9.5a3,3,0,0,0-5.1962,0L37,10.1964,53.118,38.1136,66.62,61.4992a3,3,0,0,1-2.5981,4.5h6A3,3,0,0,0,72.62,61.4992Z"/>
<polyline class="cls-3" points="43.001 72 37.001 65.999 43.001 60"/>
<polyline class="cls-3" points="61.287 29.932 59.118 38.114 50.895 35.932"/>
<polyline class="cls-3" points="15.712 35.13 23.882 32.917 26.105 41.13"/>
<path class="cls-4" d="M59.118,38.1136,42.5981,9.5a3,3,0,0,0-5.1962,0l-9.52,16.489"/>
<path class="cls-4" d="M63.118,45.0417,72.62,61.4992a3,3,0,0,1-2.5981,4.5H37"/>
<path class="cls-4" d="M23.882,32.9174,7.38,61.4992a3,3,0,0,0,2.5981,4.5H29"/>
</g>
</svg>